<!-- WebStudio Logo's Page -->
<svg version="1.1" xmlns="http://www.w3.org/2000/svg" width="7168" height="1024" viewBox="0 0 7168 1024">
<title>WebStudio</title>
<g id="webstudio-logo">
</g>
<path fill="#2196f3" d="M410.031 54.326h165.565l104.771 303.966 106.065-303.966h164.271l-157.804 417.792 116.413 292.325 259.988-712.704h194.021l-367.347 918.366h-153.923l-161.684-385.455-160.391 385.455h-153.923l-366.053-918.366h191.434l261.282 712.704 113.826-292.325-156.51-417.792zM1702.756 983.040c-54.326 0-103.478-9.054-147.456-27.163-43.978-18.971-81.489-44.409-112.532-76.315-31.043-32.768-55.188-69.848-72.435-111.239-16.384-42.253-24.576-86.663-24.576-133.228 0-64.674 14.228-123.742 42.685-177.206 29.319-53.464 70.71-96.148 124.173-128.054 54.326-32.768 118.137-49.152 191.434-49.152 74.159 0 137.539 16.384 190.141 49.152 52.601 31.906 92.699 74.59 120.293 128.054 28.456 52.601 42.685 109.514 42.685 170.739 0 10.348-0.431 21.127-1.293 32.337-0.862 10.348-1.725 18.971-2.587 25.869h-523.857c3.449 34.493 13.366 64.674 29.75 90.543 17.246 25.869 38.804 45.703 64.674 59.5 26.732 12.935 55.188 19.402 85.369 19.402 34.493 0 66.829-8.192 97.011-24.576 31.043-17.246 52.17-39.667 63.38-67.261l148.749 41.391c-16.384 34.493-40.098 65.105-71.141 91.837-30.181 26.732-65.967 47.859-107.358 63.38-41.391 14.659-87.094 21.989-137.108 21.989zM1525.55 576.889h354.412c-3.449-34.493-13.366-64.243-29.75-89.25-15.522-25.869-36.217-45.703-62.087-59.5-25.869-14.659-54.757-21.989-86.663-21.989-31.043 0-59.5 7.33-85.369 21.989-25.007 13.797-45.703 33.63-62.087 59.5-15.522 25.007-25.007 54.757-28.456 89.25zM2587.017 983.040c-51.739 0-97.873-11.641-138.402-34.924s-72.435-55.188-95.717-95.717v117.706h-151.336v-944.236h173.325v385.455c24.145-40.529 55.619-72.435 94.424-95.717 39.667-23.283 85.8-34.924 138.402-34.924 43.978 0 84.076 9.485 120.293 28.456 36.217 18.109 67.261 43.547 93.13 76.315 26.732 32.768 46.996 70.279 60.793 112.532 14.659 42.253 21.989 87.525 21.989 135.815s-8.192 93.561-24.576 135.815c-15.522 42.253-37.511 79.764-65.967 112.532-28.456 31.906-62.087 56.913-100.891 75.021-37.942 17.246-79.764 25.869-125.467 25.869zM2539.159 835.584c27.594 0 52.601-5.174 75.021-15.522 23.283-11.21 43.116-25.869 59.5-43.978 17.246-18.109 30.181-39.235 38.804-63.38 9.485-25.007 14.228-50.877 14.228-77.608 0-37.080-7.761-71.141-23.283-102.184-14.659-31.906-35.355-57.344-62.087-76.315-25.869-18.971-56.482-28.456-91.837-28.456-25.007 0-49.152 6.036-72.435 18.109-22.42 11.21-42.685 26.732-60.793 46.565-17.246 19.833-31.043 42.253-41.391 67.261v161.684c5.174 17.246 13.366 32.768 24.576 46.565 12.072 13.797 25.869 25.869 41.391 36.217 15.522 9.485 31.475 17.246 47.859 23.283 17.246 5.174 34.061 7.761 50.445 7.761z"></path>
<path fill="#000" d="M3624.114 292.325c-6.036-6.036-17.246-14.228-33.63-24.576-15.522-10.348-34.924-20.264-58.206-29.75-22.42-9.485-46.996-17.677-73.728-24.576-26.732-7.761-53.895-11.641-81.489-11.641-48.29 0-84.943 9.054-109.945 27.163-24.145 18.109-36.223 43.547-36.223 76.315 0 25.007 7.761 44.84 23.288 59.5 15.522 14.659 38.804 27.163 69.848 37.511s69.848 21.558 116.413 33.63c60.362 14.659 112.532 32.768 156.51 54.326 44.835 20.696 78.897 48.29 102.184 82.782 24.139 33.63 36.212 78.471 36.212 134.521 0 49.152-9.049 91.405-27.158 126.76-18.109 34.493-43.116 62.518-75.021 84.076s-68.123 37.511-108.652 47.859c-40.529 9.485-83.645 14.228-129.347 14.228s-91.405-4.743-137.108-14.228c-45.703-9.485-89.681-22.851-131.94-40.098-42.253-18.109-81.058-39.667-116.413-64.674l78.902-153.923c7.766 7.761 21.558 18.109 41.391 31.043 19.839 12.072 43.983 24.576 72.435 37.511 28.462 12.072 59.505 22.42 93.135 31.043s67.692 12.935 102.184 12.935c48.29 0 84.938-8.192 109.94-24.576 25.013-16.384 37.516-39.667 37.516-69.848 0-27.594-9.917-49.152-29.75-64.674s-47.427-28.888-82.782-40.098c-35.355-12.072-77.177-25.007-125.472-38.804-57.775-16.384-106.065-34.493-144.869-54.326-38.804-20.696-67.692-46.565-86.657-77.608-18.976-31.043-28.462-69.848-28.462-116.413 0-62.949 14.659-115.55 43.978-157.804 30.181-43.116 70.71-75.453 121.587-97.011 50.877-22.42 107.358-33.63 169.445-33.63 43.121 0 83.65 4.743 121.592 14.228 38.804 9.485 75.021 21.989 108.652 37.511s63.811 32.337 90.543 50.445l-78.902 144.869zM4283.214 935.181c-14.659 6.036-32.337 12.935-53.032 20.696s-43.116 13.797-67.261 18.109c-23.283 5.174-46.996 7.761-71.141 7.761-31.906 0-61.224-5.605-87.956-16.815s-48.29-28.888-64.674-53.032c-15.522-25.007-23.283-57.344-23.283-97.011v-389.336h-89.25v-133.228h89.25v-219.891h173.325v219.891h142.282v133.228h-142.282v331.129c0.862 23.283 7.33 40.098 19.402 50.445s27.163 15.522 45.272 15.522c18.109 0 35.786-3.018 53.032-9.054s31.043-11.21 41.391-15.522l34.924 137.108zM4405.825 716.584v-424.259h173.325v386.749c0 51.739 9.485 90.974 28.456 117.706 18.971 25.869 46.996 38.804 84.076 38.804 22.42 0 44.409-4.312 65.967-12.935 22.42-9.485 42.685-23.283 60.793-41.391 18.971-18.109 34.924-40.96 47.859-68.554v-420.379h173.325v483.759c0 18.109 3.018 31.043 9.054 38.804 6.899 7.761 17.677 12.504 32.337 14.228v140.989c-17.246 2.587-31.906 4.312-43.978 5.174-11.21 1.725-21.558 2.587-31.043 2.587-31.043 0-56.482-6.899-76.315-20.696-18.971-14.659-30.181-34.493-33.63-59.5l-3.88-54.326c-30.181 45.703-68.985 80.627-116.413 104.771-47.427 23.283-99.597 34.924-156.51 34.924-69.848 0-122.88-22.42-159.097-67.261-36.217-45.703-54.326-112.101-54.326-199.195zM5209.282 631.215c0-65.536 12.935-124.605 38.804-177.206 25.869-53.464 61.656-95.717 107.358-126.76 45.724-31.043 97.894-46.565 156.532-46.565 50.014 0 94.855 12.504 134.521 37.511 40.529 24.145 72.003 55.188 94.424 93.13v-385.455h173.325v750.215c0 18.109 3.018 31.043 9.054 38.804s16.384 12.504 31.043 14.228v140.989c-30.181 6.036-54.757 9.054-73.728 9.054-31.043 0-56.913-7.761-77.608-23.283-19.833-15.522-31.043-35.786-33.63-60.793l-2.587-42.685c-25.007 42.253-59.069 74.59-102.184 97.011-42.253 22.42-86.663 33.63-133.228 33.63s-89.681-9.054-129.347-27.163c-38.826-18.109-72.887-43.116-102.206-75.021-28.456-31.906-50.877-68.985-67.261-111.239-15.522-43.116-23.283-89.25-23.283-138.402zM5740.921 721.758v-161.684c-8.623-25.007-22.42-47.427-41.391-67.261s-40.098-35.355-63.38-46.565c-23.283-12.072-46.565-18.109-69.848-18.109-26.732 0-50.877 5.605-72.435 16.815s-40.529 26.301-56.913 45.272c-15.522 18.971-27.594 40.96-36.217 65.967-7.761 25.007-11.663 51.308-11.663 78.902s4.333 53.895 12.956 78.902c9.485 24.145 22.851 45.272 40.098 63.38s37.080 32.337 59.5 42.685c23.283 10.348 48.29 15.522 75.021 15.522 16.384 0 32.768-2.587 49.152-7.761 17.246-6.036 33.199-13.797 47.859-23.283 15.522-10.348 28.888-22.42 40.098-36.217 12.072-14.659 21.127-30.181 27.163-46.565zM6123.143 970.105v-677.78h173.325v677.78h-173.325zM6123.143 197.901v-172.032h173.325v172.032h-173.325zM6804.696 983.040c-55.188 0-104.771-9.054-148.749-27.163-43.978-18.971-81.489-44.84-112.532-77.608-30.181-32.768-53.464-70.279-69.848-112.532s-24.576-86.663-24.576-133.228c0-47.427 8.192-92.268 24.576-134.521s39.667-79.764 69.848-112.532c31.043-32.768 68.554-58.206 112.532-76.315 43.978-18.971 93.561-28.456 148.749-28.456s104.34 9.485 147.456 28.456c43.978 18.109 81.489 43.547 112.532 76.315s54.326 70.279 69.848 112.532c16.384 42.253 24.576 87.094 24.576 134.521 0 46.565-8.192 90.974-24.576 133.228-15.522 42.253-38.804 79.764-69.848 112.532-30.181 32.768-67.261 58.637-111.239 77.608-43.978 18.109-93.561 27.163-148.749 27.163zM6627.49 632.509c0 39.667 7.761 75.021 23.283 106.065 15.522 30.181 36.648 53.895 63.38 71.141s56.913 25.869 90.543 25.869c32.768 0 62.518-8.623 89.25-25.869 26.732-18.109 47.859-42.253 63.38-72.435 16.384-31.043 24.576-66.398 24.576-106.065 0-38.804-8.192-73.728-24.576-104.771-15.522-31.043-36.648-55.188-63.38-72.435s-56.482-25.869-89.25-25.869c-33.63 0-63.811 9.054-90.543 27.163-26.732 17.246-47.859 41.391-63.38 72.435-15.522 30.181-23.283 65.105-23.283 104.771z"></path>
</svg>